<svg width="25" height="25"><path d="M19.034 12.066H5.72A3.833 3.833 0 001.887 15.9v3.08a3.833 3.833 0 003.832 3.834h13.315a3.833 3.833 0 003.832-3.833V15.9a3.834 3.834 0 00-3.832-3.834zM8.517 14.464H7.279v6.15H6.083v-6.15H4.846v-1.046h3.67v1.046zm3.497 6.15h-1.061v-.58c-.197.214-.4.379-.613.49a1.283 1.283 0 01-.616.169c-.246 0-.43-.079-.555-.238-.123-.158-.186-.394-.186-.711v-4.439h1.06v4.073c0 .126.024.216.067.272.046.058.118.085.218.085.077 0 .176-.037.295-.112.12-.075.23-.169.33-.285v-4.033h1.06v5.31zm3.85-1.096c0 .376-.083.664-.249.865-.165.201-.408.3-.721.3-.209 0-.395-.038-.556-.116a1.363 1.363 0 01-.454-.36v.407h-1.073v-7.196h1.073v2.318a1.68 1.68 0 01.455-.369c.162-.085.325-.126.49-.126.336 0 .591.112.768.339.178.226.267.557.267.992v2.947zm3.68-1.43h-2.03v1c0 .28.035.473.104.581.071.11.19.162.36.162.176 0 .298-.046.37-.137.068-.092.105-.293.105-.606v-.241h1.091v.272c0 .544-.132.954-.4 1.231-.264.274-.661.41-1.19.41-.476 0-.851-.145-1.124-.437-.271-.29-.41-.692-.41-1.204v-2.384c0-.46.151-.837.452-1.127.3-.29.686-.434 1.161-.434.487 0 .86.134 1.12.403.261.269.392.654.392 1.157v1.354z"/><path d="M17.988 16.102c-.169 0-.29.048-.363.147-.075.093-.11.253-.11.476v.536h.938v-.536c0-.223-.038-.383-.113-.476-.07-.099-.19-.147-.352-.147zm-3.66-.018a.524.524 0 00-.224.052.76.76 0 00-.22.162v3.308c.086.085.17.151.252.189a.623.623 0 00.257.057c.13 0 .225-.038.287-.114.06-.075.09-.195.09-.365V16.63c0-.181-.035-.316-.11-.409a.411.411 0 00-.332-.138zm-6.865-5.862h1.345v-3.29l1.566-4.64H9.007l-.833 3.17H8.09l-.874-3.17H5.86l1.602 4.789v3.14zm4.733.148c.543 0 .969-.143 1.28-.428.308-.286.462-.677.462-1.177V5.744c0-.446-.158-.812-.472-1.095-.316-.282-.722-.424-1.216-.424-.544 0-.976.134-1.298.403-.32.268-.482.627-.482 1.082v3.032c0 .497.157.89.47 1.186.314.294.734.441 1.256.441zM11.7 5.665c0-.127.046-.23.136-.31a.53.53 0 01.356-.117c.158 0 .286.038.383.117a.38.38 0 01.146.31v3.187a.48.48 0 01-.144.37.538.538 0 01-.385.133c-.158 0-.28-.043-.365-.132a.514.514 0 01-.127-.372V5.666zm4.042 4.642a1.5 1.5 0 00.692-.187c.24-.125.47-.308.689-.546v.648h1.194V4.373h-1.194v4.44a1.653 1.653 0 01-.368.314c-.135.082-.246.123-.334.123-.112 0-.194-.03-.243-.094-.049-.061-.077-.161-.077-.299V4.373h-1.193v4.889c0 .348.07.609.21.781.14.176.346.264.624.264z"/></svg>