<svg width="25" height="25"><path d="M12.062 7.143c-2.994 0-5.475 2.438-5.475 5.475a5.458 5.458 0 005.475 5.475c3.037 0 5.475-2.48 5.475-5.475 0-2.994-2.48-5.475-5.475-5.475zm0 8.982a3.523 3.523 0 01-3.507-3.507 3.523 3.523 0 013.507-3.507 3.523 3.523 0 013.507 3.507 3.523 3.523 0 01-3.507 3.507zm5.688-7.87a1.24 1.24 0 100-2.48 1.24 1.24 0 000 2.48z"/><path d="M20.959 3.807c-1.112-1.155-2.695-1.754-4.491-1.754H7.656c-3.72 0-6.202 2.48-6.202 6.202v8.769c0 1.839.6 3.421 1.797 4.576 1.155 1.112 2.694 1.668 4.448 1.668h8.726c1.839 0 3.379-.598 4.491-1.668 1.155-1.112 1.754-2.694 1.754-4.534v-8.81c0-1.797-.6-3.337-1.711-4.45zm-.257 13.26c0 1.325-.385 2.395-1.155 3.122-.77.727-1.839 1.112-3.122 1.112H7.699c-1.283 0-2.352-.385-3.122-1.112-.77-.77-1.155-1.84-1.155-3.165V8.255c0-1.283.385-2.352 1.155-3.122.727-.727 1.839-1.112 3.122-1.112h8.811c1.284 0 2.353.385 3.123 1.155.727.77 1.155 1.839 1.155 3.08v8.81h-.086z"/></svg>