<svg viewBox="0 0 29.12 29.12" xmlns="http://www.w3.org/2000/svg" xmlns:xlink="http://www.w3.org/1999/xlink"><style>:root&gt;svg{display:none}:root&gt;svg:target{display:block}</style><svg viewBox="0 0 29.121 29.121" id="icon__calendar"><g fill="#030104"><path d="M21.706 6.146c1.116 0 2.02-.898 2.02-2.016V2.02c0-1.119-.903-2.02-2.02-2.02s-2.019.9-2.019 2.02v2.111a2.014 2.014 0 002.019 2.015z"/><path d="M28.882 3.494h-4.066v1.027a3.078 3.078 0 01-3.075 3.076 3.076 3.076 0 01-3.074-3.076V3.494h-8.205v1.027c0 1.695-1.379 3.076-3.076 3.076s-3.075-1.38-3.075-3.076V3.494L.208 3.443v25.678h26.656l2.049-.006-.031-25.621zm-2.02 23.582H2.26V10.672h24.604v16.404h-.002z"/><path d="M7.354 6.146A2.016 2.016 0 009.375 4.13V2.02C9.375.9 8.47 0 7.354 0S5.336.9 5.336 2.02v2.111c0 1.117.901 2.015 2.018 2.015zm3.114 6.727h3.231v2.852h-3.231zm5.224 0h3.234v2.852h-3.234zm4.845 0h3.231v2.852h-3.231zm-10.069 4.736h3.231v2.85h-3.231zm5.224 0h3.234v2.85h-3.234zm4.845 0h3.231v2.85h-3.231zm-10.069 4.83h3.231v2.85h-3.231zm-5.132-4.83h3.229v2.85H5.336zm0 4.83h3.229v2.85H5.336zm10.356 0h3.234v2.85h-3.234zm4.845 0h3.231v2.85h-3.231z"/></g></svg><svg viewBox="0 0 25 25" id="icon__facebook"><path d="M17.795 9.298h-3.27V7.154c0-.806.533-.993.91-.993h2.307V2.62l-3.178-.013c-3.528 0-4.33 2.641-4.33 4.331v2.36H8.192v3.649h2.04V23.27h4.292V12.947h2.895l.375-3.649z"/></svg><svg viewBox="0 0 25 25" id="icon__instagram"><path d="M12.062 7.143c-2.994 0-5.475 2.438-5.475 5.475a5.458 5.458 0 005.475 5.475c3.037 0 5.475-2.48 5.475-5.475 0-2.994-2.48-5.475-5.475-5.475zm0 8.982a3.523 3.523 0 01-3.507-3.507 3.523 3.523 0 013.507-3.507 3.523 3.523 0 013.507 3.507 3.523 3.523 0 01-3.507 3.507zm5.688-7.87a1.24 1.24 0 100-2.48 1.24 1.24 0 000 2.48z"/><path d="M20.959 3.807c-1.112-1.155-2.695-1.754-4.491-1.754H7.656c-3.72 0-6.202 2.48-6.202 6.202v8.769c0 1.839.6 3.421 1.797 4.576 1.155 1.112 2.694 1.668 4.448 1.668h8.726c1.839 0 3.379-.598 4.491-1.668 1.155-1.112 1.754-2.694 1.754-4.534v-8.81c0-1.797-.6-3.337-1.711-4.45zm-.257 13.26c0 1.325-.385 2.395-1.155 3.122-.77.727-1.839 1.112-3.122 1.112H7.699c-1.283 0-2.352-.385-3.122-1.112-.77-.77-1.155-1.84-1.155-3.165V8.255c0-1.283.385-2.352 1.155-3.122.727-.727 1.839-1.112 3.122-1.112h8.811c1.284 0 2.353.385 3.123 1.155.727.77 1.155 1.839 1.155 3.08v8.81h-.086z"/></svg><svg viewBox="0 0 25 25" id="icon__twitter"><path d="M18.267 18.113h-3.986c-2.837 0-3.289-1.255-3.289-2.418 0-.553.034-1.463.069-2.578h6.66c.997 0 2.899-.409 2.899-2.232 0-1.822-.878-3.017-2.054-3.017h-7.422c-.008-2.63-.18-5.25-2.748-5.25-1.062 0-1.924.437-2.287 1.52-.477 1.424-.35 3.09-.345 4.573l.004.847c.003.97.023 1.947.027 2.923.003 1.05.004 2.1.004 3.15 0 5.879 5.344 7.545 6.37 7.545 1.024 0 5.04.095 5.764.095.726 0 2.807-.192 2.807-2.297 0-2.106-1.476-2.861-2.473-2.861z"/></svg><svg viewBox="0 0 25 25" id="icon__youtube"><path d="M19.034 12.066H5.72A3.833 3.833 0 001.887 15.9v3.08a3.833 3.833 0 003.832 3.834h13.315a3.833 3.833 0 003.832-3.833V15.9a3.834 3.834 0 00-3.832-3.834zM8.517 14.464H7.279v6.15H6.083v-6.15H4.846v-1.046h3.67v1.046zm3.497 6.15h-1.061v-.58c-.197.214-.4.379-.613.49a1.283 1.283 0 01-.616.169c-.246 0-.43-.079-.555-.238-.123-.158-.186-.394-.186-.711v-4.439h1.06v4.073c0 .126.024.216.067.272.046.058.118.085.218.085.077 0 .176-.037.295-.112.12-.075.23-.169.33-.285v-4.033h1.06v5.31zm3.85-1.096c0 .376-.083.664-.249.865-.165.201-.408.3-.721.3-.209 0-.395-.038-.556-.116a1.363 1.363 0 01-.454-.36v.407h-1.073v-7.196h1.073v2.318a1.68 1.68 0 01.455-.369c.162-.085.325-.126.49-.126.336 0 .591.112.768.339.178.226.267.557.267.992v2.947zm3.68-1.43h-2.03v1c0 .28.035.473.104.581.071.11.19.162.36.162.176 0 .298-.046.37-.137.068-.092.105-.293.105-.606v-.241h1.091v.272c0 .544-.132.954-.4 1.231-.264.274-.661.41-1.19.41-.476 0-.851-.145-1.124-.437-.271-.29-.41-.692-.41-1.204v-2.384c0-.46.151-.837.452-1.127.3-.29.686-.434 1.161-.434.487 0 .86.134 1.12.403.261.269.392.654.392 1.157v1.354z"/><path d="M17.988 16.102c-.169 0-.29.048-.363.147-.075.093-.11.253-.11.476v.536h.938v-.536c0-.223-.038-.383-.113-.476-.07-.099-.19-.147-.352-.147zm-3.66-.018a.524.524 0 00-.224.052.76.76 0 00-.22.162v3.308c.086.085.17.151.252.189a.623.623 0 00.257.057c.13 0 .225-.038.287-.114.06-.075.09-.195.09-.365V16.63c0-.181-.035-.316-.11-.409a.411.411 0 00-.332-.138zm-6.865-5.862h1.345v-3.29l1.566-4.64H9.007l-.833 3.17H8.09l-.874-3.17H5.86l1.602 4.789v3.14zm4.733.148c.543 0 .969-.143 1.28-.428.308-.286.462-.677.462-1.177V5.744c0-.446-.158-.812-.472-1.095-.316-.282-.722-.424-1.216-.424-.544 0-.976.134-1.298.403-.32.268-.482.627-.482 1.082v3.032c0 .497.157.89.47 1.186.314.294.734.441 1.256.441zM11.7 5.665c0-.127.046-.23.136-.31a.53.53 0 01.356-.117c.158 0 .286.038.383.117a.38.38 0 01.146.31v3.187a.48.48 0 01-.144.37.538.538 0 01-.385.133c-.158 0-.28-.043-.365-.132a.514.514 0 01-.127-.372V5.666zm4.042 4.642a1.5 1.5 0 00.692-.187c.24-.125.47-.308.689-.546v.648h1.194V4.373h-1.194v4.44a1.653 1.653 0 01-.368.314c-.135.082-.246.123-.334.123-.112 0-.194-.03-.243-.094-.049-.061-.077-.161-.077-.299V4.373h-1.193v4.889c0 .348.07.609.21.781.14.176.346.264.624.264z"/></svg></svg>