<?xml version="1.0" standalone="no"?>
<!DOCTYPE svg PUBLIC "-//W3C//DTD SVG 20010904//EN"
 "http://www.w3.org/TR/2001/REC-SVG-20010904/DTD/svg10.dtd">
<svg version="1.0" xmlns="http://www.w3.org/2000/svg"
 width="154.000000pt" height="154.000000pt" viewBox="0 0 154.000000 154.000000"
 preserveAspectRatio="xMidYMid meet">
<metadata>
Created by potrace 1.14, written by Peter Selinger 2001-2017
</metadata>
<g transform="translate(0.000000,154.000000) scale(0.100000,-0.100000)"
fill="#000000" stroke="none">
<path d="M636 1135 c-33 -13 -75 -37 -95 -53 -41 -32 -91 -122 -91 -164 l0
-28 324 0 324 0 -5 33 c-11 77 -67 153 -145 196 -50 27 -78 33 -173 37 -66 2
-91 -1 -139 -21z m125 -22 c0 -16 2 -38 3 -50 1 -12 -2 -24 -8 -26 -24 -8
-110 -1 -113 9 -6 17 74 94 97 94 15 0 20 -7 21 -27z m86 1 c18 -14 39 -37 47
-52 l14 -28 -61 1 -62 0 -3 53 c-4 62 11 68 65 26z m-183 -6 c-11 -13 -27 -35
-36 -49 -14 -22 -23 -25 -60 -23 -23 1 -44 2 -46 3 -8 3 56 50 93 69 55 29 74
29 49 0z m243 10 c37 -16 113 -67 113 -76 0 -4 -21 -7 -46 -7 -35 0 -48 5 -56
20 -6 11 -22 32 -36 48 -28 29 -19 34 25 15z m-301 -107 c1 0 -4 -25 -11 -53
l-11 -53 -57 0 c-53 -1 -57 1 -57 22 0 12 8 38 17 57 16 35 18 35 67 32 28 -2
51 -4 52 -5z m155 -15 c0 -12 2 -34 3 -49 1 -16 -3 -31 -9 -35 -5 -3 -41 -6
-79 -7 l-68 0 5 48 c4 26 9 51 12 56 3 5 34 9 70 8 58 -1 65 -3 66 -21z m155
12 c13 -14 22 -98 10 -99 -6 0 -41 -2 -79 -2 l-67 -2 0 57 0 57 64 -2 c36 -1
68 -5 72 -9z m138 -18 c20 -38 28 -80 16 -81 -5 -1 -34 -2 -62 -2 l-53 -1 -5
39 c-3 22 -9 45 -13 52 -9 15 8 21 61 20 36 -1 46 -5 56 -27z"/>
<path d="M135 860 c-11 -18 -7 -170 4 -170 5 0 8 31 7 69 -3 68 2 94 20 90 20
-3 57 1 51 7 -7 8 -78 11 -82 4z"/>
<path d="M258 860 c-16 -6 -20 -170 -4 -171 6 0 19 -2 30 -4 10 -2 28 0 40 5
19 8 18 9 -9 11 -16 1 -35 1 -41 0 -6 -1 -11 13 -10 31 1 29 5 34 36 39 33 6
29 9 -15 13 -15 1 -20 8 -20 31 0 26 4 31 35 36 19 4 33 7 30 8 -12 6 -60 6
-72 1z"/>
<path d="M389 840 c-44 -44 -38 -114 12 -144 61 -36 124 5 124 80 0 52 -25 82
-74 89 -27 3 -39 -2 -62 -25z m95 -5 c47 -47 21 -135 -40 -135 -35 0 -64 34
-64 75 0 61 65 99 104 60z"/>
<path d="M561 780 c-1 -60 3 -90 10 -90 7 0 10 15 7 41 l-4 41 43 -45 c43 -46
71 -51 30 -6 -54 59 -53 57 -17 94 19 19 30 38 26 42 -4 4 -23 -10 -41 -32
l-34 -40 -1 37 c0 20 -4 39 -9 42 -5 4 -10 -33 -10 -84z"/>
<path d="M730 853 c-35 -24 -40 -33 -40 -79 0 -37 26 -82 48 -85 4 0 17 -2 30
-5 51 -9 95 46 86 107 -10 64 -74 97 -124 62z m79 -13 c24 -12 36 -73 20 -102
-36 -69 -119 -40 -119 41 0 58 49 88 99 61z"/>
<path d="M890 783 c0 -56 4 -93 10 -93 6 0 10 18 10 40 l0 40 45 0 45 0 0 -39
c0 -22 4 -42 9 -45 5 -3 9 34 9 84 1 49 -4 92 -9 95 -5 4 -9 -13 -9 -38 l0
-43 -45 0 c-44 0 -49 4 -46 38 1 10 -2 26 -8 35 -8 13 -10 -6 -11 -74z"/>
<path d="M1082 862 c-21 -3 -22 -7 -21 -88 1 -54 5 -84 13 -85 63 -7 104 3 46
11 -31 4 -35 9 -38 38 -3 31 -2 32 35 32 26 0 34 3 24 9 -8 5 -25 7 -38 5 -21
-4 -23 -1 -23 31 0 34 1 35 37 35 20 0 34 2 31 5 -8 8 -40 12 -66 7z"/>
<path d="M1190 775 c0 -59 4 -94 10 -90 5 3 8 21 6 40 -1 19 0 35 3 35 3 0 20
-16 37 -36 18 -20 37 -35 43 -33 6 2 -7 23 -29 46 l-40 41 36 36 c20 20 34 41
32 47 -2 6 -20 -7 -41 -30 -20 -23 -38 -41 -40 -41 -2 0 -3 16 -2 35 1 20 -2
38 -6 41 -5 3 -9 -38 -9 -91z"/>
<path d="M1323 858 c-14 -5 -11 -7 10 -7 l27 -1 0 -80 c0 -44 4 -80 9 -80 5 0
9 28 9 63 0 99 -1 97 29 97 14 0 23 3 20 7 -9 9 -83 10 -104 1z"/>
<path d="M478 662 c-23 -3 -28 -8 -28 -30 1 -75 74 -167 168 -210 50 -23 70
-26 157 -26 85 0 108 4 150 24 75 36 140 106 159 171 9 30 12 57 7 62 -8 8
-552 16 -613 9z m118 -67 c7 -27 11 -52 9 -55 -2 -3 -26 -7 -53 -7 -53 -2 -61
6 -82 79 -10 32 -6 33 62 32 l52 0 12 -49z m164 25 c3 -13 4 -38 2 -55 l-4
-32 -66 1 c-72 1 -79 7 -81 81 l-1 30 72 0 c68 -1 73 -2 78 -25z m171 18 c3
-19 2 -35 -5 -69 l-8 -35 -69 -1 -69 -1 0 52 c0 29 2 55 4 57 8 7 146 4 147
-3z m137 3 c14 -1 8 -39 -14 -82 -12 -23 -18 -26 -66 -25 -41 1 -52 5 -49 16
2 8 6 29 9 45 7 48 20 53 120 46z m-443 -141 c4 -11 18 -34 32 -50 13 -17 20
-30 14 -30 -21 0 -106 48 -128 72 l-22 23 49 3 c41 1 50 -1 55 -18z m136 2 c0
-10 2 -30 3 -45 3 -47 -9 -55 -49 -33 -35 19 -75 64 -75 84 0 5 27 9 60 10 49
0 60 -3 61 -16z m139 3 c0 -30 -74 -95 -110 -95 -6 0 -10 23 -10 54 l0 53 60
1 c42 0 60 -4 60 -13z m120 4 c0 -13 -101 -77 -134 -85 l-30 -7 23 24 c12 13
29 36 37 51 12 24 20 27 59 26 25 0 45 -4 45 -9z"/>
</g>
</svg>
